<?xml version="1.0" encoding="UTF-8" standalone="no"?><!DOCTYPE svg PUBLIC "-//W3C//DTD SVG 1.1//EN" "http://www.w3.org/Graphics/SVG/1.1/DTD/svg11.dtd"><svg width="100%" height="100%" viewBox="0 0 71 71" version="1.1" xmlns="http://www.w3.org/2000/svg" xmlns:xlink="http://www.w3.org/1999/xlink" xml:space="preserve" xmlns:serif="http://www.serif.com/" style="fill-rule:evenodd;clip-rule:evenodd;stroke-linejoin:round;stroke-miterlimit:2;"><path d="M58.764,68.36l-45.247,0c-1.785,0 -3.232,-1.577 -3.232,-3.523l0,-28.189l-6.463,-0l30.03,-32.745c0.607,-0.661 1.429,-1.033 2.287,-1.033c0.858,-0 1.68,0.372 2.287,1.033l30.034,32.745l-6.464,-0l-0,28.189c-0,1.946 -1.447,3.523 -3.232,3.523Zm-29.087,-24.665l12.927,0l0,17.618l12.928,0l-0,-28.795l-19.391,-21.141l-19.392,21.141l0,28.795l12.928,0l-0,-17.618Z" style="fill:#f2f2f2;fill-rule:nonzero;"/></svg>