<?xml version="1.0" encoding="UTF-8" standalone="no"?><!DOCTYPE svg PUBLIC "-//W3C//DTD SVG 1.1//EN" "http://www.w3.org/Graphics/SVG/1.1/DTD/svg11.dtd"><svg width="100%" height="100%" viewBox="0 0 63 67" version="1.1" xmlns="http://www.w3.org/2000/svg" xmlns:xlink="http://www.w3.org/1999/xlink" xml:space="preserve" xmlns:serif="http://www.serif.com/" style="fill-rule:evenodd;clip-rule:evenodd;stroke-linejoin:round;stroke-miterlimit:2;"><path d="M7.733,61.369c29.555,0.042 51.986,-22.938 51.954,-52.598c0,-1.936 -1.551,-3.515 -3.464,-3.515l-9.143,-0c-1.717,-0 -3.175,1.277 -3.427,2.996c-0.604,4.12 -1.789,8.131 -3.519,11.911l-0.356,0.778c-0.495,1.082 -0.16,2.367 0.799,3.059c2.831,2.048 3.913,6.168 1.707,9.384c-2.768,4.034 -6.257,7.566 -10.242,10.367c-3.175,2.233 -7.245,1.138 -9.267,-1.729c-0.685,-0.97 -1.955,-1.31 -3.024,-0.809l-0.765,0.359c-3.734,1.751 -7.696,2.951 -11.767,3.562c-1.698,0.255 -2.959,1.732 -2.959,3.47l0,9.258c0,1.937 1.555,3.507 3.468,3.507l0.005,-0Z" style="fill:#f3f3f3;fill-rule:nonzero;"/></svg>