<?xml version="1.0" encoding="UTF-8" standalone="no"?><!DOCTYPE svg PUBLIC "-//W3C//DTD SVG 1.1//EN" "http://www.w3.org/Graphics/SVG/1.1/DTD/svg11.dtd"><svg width="100%" height="100%" viewBox="0 0 71 75" version="1.1" xmlns="http://www.w3.org/2000/svg" xmlns:xlink="http://www.w3.org/1999/xlink" xml:space="preserve" xmlns:serif="http://www.serif.com/" style="fill-rule:evenodd;clip-rule:evenodd;stroke-linejoin:round;stroke-miterlimit:2;"><path d="M55.936,64.032l-39.591,0c-3.123,0 -5.656,-2.563 -5.656,-5.725l0,-40.081c0,-3.162 2.533,-5.726 5.656,-5.726l39.591,0c3.124,0 5.656,2.564 5.656,5.726l-0,40.081c-0,3.162 -2.532,5.725 -5.656,5.725Zm-39.591,-45.806l0,40.081l39.591,-0l-0,-40.081l-39.591,-0Zm36.763,34.355l-33.935,-0l8.484,-11.452l2.828,2.863l8.483,-11.452l14.14,20.041Zm-26.865,-17.178c-2.343,0 -4.242,-1.922 -4.242,-4.294c0,-2.372 1.899,-4.294 4.242,-4.294c2.343,-0 4.242,1.922 4.242,4.294c-0,2.372 -1.899,4.294 -4.242,4.294Z" style="fill:#f3f3f3;fill-rule:nonzero;"/></svg>