<?xml version="1.0" encoding="UTF-8" standalone="no"?><!DOCTYPE svg PUBLIC "-//W3C//DTD SVG 1.1//EN" "http://www.w3.org/Graphics/SVG/1.1/DTD/svg11.dtd"><svg width="100%" height="100%" viewBox="0 0 80 80" version="1.1" xmlns="http://www.w3.org/2000/svg" xmlns:xlink="http://www.w3.org/1999/xlink" xml:space="preserve" xmlns:serif="http://www.serif.com/" style="fill-rule:evenodd;clip-rule:evenodd;stroke-linejoin:round;stroke-miterlimit:2;"><path d="M71.619,53.399c-5.056,-0 -10.111,-0.835 -15.167,-2.505c-1.263,-0.418 -2.949,-0 -4.212,0.835l-9.269,9.184c-11.796,-5.845 -21.485,-15.864 -27.805,-27.553l9.269,-9.184c1.264,-1.253 1.685,-2.922 0.842,-4.175c-1.264,-4.592 -2.106,-9.602 -2.106,-14.611c-0,-2.505 -1.685,-4.175 -4.213,-4.175l-14.745,0c-2.528,0 -4.213,1.67 -4.213,4.175c0,39.242 32.018,70.969 71.619,70.969c2.528,0 4.213,-1.67 4.213,-4.174l-0,-14.612c-0,-2.505 -1.685,-4.174 -4.213,-4.174Zm-4.213,-14.612l8.426,0c-0,-20.873 -16.852,-37.572 -37.916,-37.572l-0,8.35c16.43,-0 29.49,12.941 29.49,29.222Zm-16.852,0l8.426,0c0,-11.689 -9.268,-20.873 -21.064,-20.873l-0,8.349c7.162,0 12.638,5.427 12.638,12.524Z" style="fill:#fff;"/></svg>